<svg width="60" height="59" viewBox="0 0 60 59" fill="none" xmlns="http://www.w3.org/2000/svg">
<path d="M29.9508 19.6625C24.5368 19.6625 20.1186 24.0831 20.1186 29.5C20.1186 34.9169 24.5368 39.3375 29.9508 39.3375C35.3648 39.3375 39.783 34.9169 39.783 29.5C39.783 24.0831 35.3648 19.6625 29.9508 19.6625ZM59.4401 29.5C59.4401 25.4262 59.4769 21.3894 59.2483 17.323C59.0196 12.5998 57.9427 8.408 54.4908 4.95417C51.0314 1.49295 46.8492 0.422854 42.1286 0.194075C38.057 -0.0347049 34.0224 0.00219513 29.9582 0.00219513C25.8866 0.00219513 21.852 -0.0347049 17.7878 0.194075C13.0671 0.422854 8.87758 1.50033 5.42561 4.95417C1.96627 8.41538 0.896747 12.5998 0.668091 17.323C0.439435 21.3968 0.476315 25.4336 0.476315 29.5C0.476315 33.5664 0.439435 37.6106 0.668091 41.677C0.896747 46.4002 1.97364 50.592 5.42561 54.0458C8.88496 57.507 13.0671 58.5771 17.7878 58.8059C21.8593 59.0347 25.894 58.9978 29.9582 58.9978C34.0297 58.9978 38.0644 59.0347 42.1286 58.8059C46.8492 58.5771 51.0388 57.4997 54.4908 54.0458C57.9501 50.5846 59.0196 46.4002 59.2483 41.677C59.4843 37.6106 59.4401 33.5738 59.4401 29.5ZM29.9508 44.6363C21.5791 44.6363 14.8226 37.8763 14.8226 29.5C14.8226 21.1237 21.5791 14.3636 29.9508 14.3636C38.3226 14.3636 45.079 21.1237 45.079 29.5C45.079 37.8763 38.3226 44.6363 29.9508 44.6363ZM45.6986 17.2787C43.7439 17.2787 42.1655 15.6994 42.1655 13.7437C42.1655 11.788 43.7439 10.2087 45.6986 10.2087C47.6532 10.2087 49.2317 11.788 49.2317 13.7437C49.2323 14.2081 49.1413 14.6681 48.9639 15.0972C48.7866 15.5264 48.5264 15.9163 48.1982 16.2447C47.87 16.573 47.4802 16.8334 47.0513 17.0108C46.6224 17.1883 46.1627 17.2793 45.6986 17.2787Z" fill="black" fill-opacity="0.5"/>
</svg>
