<svg width="19" height="19" viewBox="0 0 19 19" fill="none" xmlns="http://www.w3.org/2000/svg">
<path d="M9.38587 6.24445C7.66197 6.24445 6.25513 7.64836 6.25513 9.36867C6.25513 11.089 7.66197 12.4929 9.38587 12.4929C11.1098 12.4929 12.5166 11.089 12.5166 9.36867C12.5166 7.64836 11.1098 6.24445 9.38587 6.24445ZM18.7757 9.36867C18.7757 8.07492 18.7875 6.79289 18.7147 5.50148C18.6419 4.00148 18.299 2.67023 17.1998 1.57335C16.0983 0.474135 14.7666 0.134291 13.2635 0.0616346C11.967 -0.0110217 10.6823 0.000697135 9.38822 0.000697135C8.09177 0.000697135 6.80706 -0.0110217 5.51296 0.0616346C4.00983 0.134291 2.6758 0.476478 1.57664 1.57335C0.475124 2.67257 0.134571 4.00148 0.0617633 5.50148C-0.0110447 6.79523 0.00069859 8.07726 0.00069859 9.36867C0.00069859 10.6601 -0.0110447 11.9444 0.0617633 13.2359C0.134571 14.7359 0.477473 16.0671 1.57664 17.164C2.67815 18.2632 4.00983 18.603 5.51296 18.6757C6.80941 18.7484 8.09412 18.7366 9.38822 18.7366C10.6847 18.7366 11.9694 18.7484 13.2635 18.6757C14.7666 18.603 16.1006 18.2609 17.1998 17.164C18.3013 16.0648 18.6419 14.7359 18.7147 13.2359C18.7898 11.9444 18.7757 10.6624 18.7757 9.36867ZM9.38587 14.1757C6.72016 14.1757 4.56881 12.0288 4.56881 9.36867C4.56881 6.70851 6.72016 4.56164 9.38587 4.56164C12.0516 4.56164 14.2029 6.70851 14.2029 9.36867C14.2029 12.0288 12.0516 14.1757 9.38587 14.1757ZM14.4002 5.48742C13.7778 5.48742 13.2752 4.98585 13.2752 4.36476C13.2752 3.74367 13.7778 3.2421 14.4002 3.2421C15.0226 3.2421 15.5252 3.74367 15.5252 4.36476C15.5254 4.51224 15.4964 4.65831 15.44 4.7946C15.3835 4.93089 15.3006 5.05473 15.1961 5.15901C15.0916 5.2633 14.9675 5.34598 14.831 5.40234C14.6944 5.45869 14.548 5.4876 14.4002 5.48742Z" fill="#323232"/>
</svg>
