<svg width="204" height="92" viewBox="0 0 204 92" fill="none" xmlns="http://www.w3.org/2000/svg">
<path d="M88.8808 55.5962C86.3033 53.0233 82.6158 51.8666 79.0157 52.5022L76.6378 52.9219L75.9556 50.6095C72.0831 37.4842 59.7969 28.3175 46.0777 28.3175C32.3584 28.3175 20.0722 37.4842 16.1997 50.6095L15.5174 52.9219L13.1395 52.5022C9.53988 51.8661 5.85187 53.0231 3.27457 55.5962C1.16292 57.7043 0 60.5072 0 63.4886C0 66.47 1.16292 69.2729 3.27457 71.3812C5.38623 73.4895 8.19409 74.6504 11.1803 74.6504C14.1667 74.6504 16.9744 73.4895 19.0862 71.3812C19.6325 70.8357 20.1242 70.2316 20.5474 69.5852L22.8072 66.1345L25.067 69.5852C25.4901 70.2314 25.9819 70.8357 26.5281 71.3812C28.6398 73.4893 31.4477 74.6504 34.4339 74.6504C37.4203 74.6504 40.228 73.4895 42.3398 71.3812C42.8861 70.8357 43.3778 70.2316 43.801 69.5852L46.0606 66.1349L48.3205 69.5851C48.7439 70.2314 49.2356 70.8357 49.7819 71.3812C51.8934 73.4893 54.7012 74.6503 57.6876 74.6503C60.674 74.6503 63.4817 73.4893 65.5936 71.381C66.1449 70.8306 66.6407 70.2192 67.068 69.5635L69.3312 66.0894L71.5945 69.5635C72.0219 70.2195 72.518 70.831 73.0688 71.3808C75.1806 73.4893 77.9883 74.6503 80.9747 74.6503C83.9611 74.6503 86.7688 73.4893 88.8806 71.381C90.9924 69.2728 92.1554 66.47 92.1554 63.4886C92.1554 60.5072 90.9924 57.7043 88.8808 55.5962ZM39.1847 55.7031H33.785V50.552H39.1847V55.7031ZM48.7775 46.9982H43.3778V41.8471H48.7775V46.9982ZM58.3703 55.7031H52.9706V50.552H58.3703V55.7031Z" fill="#323232"/>
<path d="M69.3313 75.2725C62.8926 81.6142 52.5061 81.6198 46.0608 75.2892C39.6207 81.6146 29.2471 81.6142 22.8072 75.2892C18.2667 79.7487 11.7721 81.0596 6.07829 79.2309L7.93472 85.5456C9.05192 89.3458 12.6028 92 16.57 92H75.5852C79.5526 92 83.1036 89.3458 84.2206 85.5456L86.0735 79.2429C84.4471 79.7656 82.7327 80.0411 80.9749 80.0411C76.5838 80.0411 72.4536 78.3484 69.3313 75.2725Z" fill="#323232"/>
<path d="M25.8325 23.6575H31.2322C31.2322 22.2457 31.7153 21.6646 32.5922 20.6098C33.6914 19.2877 35.1969 17.4766 35.1969 14.1193C35.1969 10.7618 33.6914 8.95096 32.5922 7.62882C31.7153 6.57387 31.2322 5.99276 31.2322 4.58078H25.8325C25.8325 7.93824 27.3379 9.74913 28.4371 11.0713C29.314 12.1262 29.7971 12.7073 29.7971 14.1193C29.7971 15.5311 29.314 16.1122 28.4371 17.167C27.3379 18.4893 25.8325 20.3002 25.8325 23.6575Z" fill="#323232"/>
<path d="M41.3956 19.0767H46.7953C46.7953 17.6649 47.2786 17.0838 48.1555 16.029C49.2545 14.7069 50.7601 12.8958 50.7601 9.53853C50.7601 6.18107 49.2549 4.37018 48.1555 3.04804C47.2786 1.99309 46.7953 1.41198 46.7953 0H41.3956C41.3956 3.35746 42.901 5.16835 44.0002 6.49049C44.8771 7.54544 45.3602 8.12655 45.3602 9.53853C45.3602 10.9503 44.8771 11.5314 44.0002 12.5862C42.901 13.9085 41.3956 15.7194 41.3956 19.0767Z" fill="#323232"/>
<path d="M56.9585 23.6575H62.3582C62.3582 22.2457 62.8413 21.6646 63.7182 20.6098C64.8174 19.2875 66.3229 17.4766 66.3229 14.1193C66.3229 10.7618 64.8176 8.95114 63.7182 7.62882C62.8413 6.57387 62.3582 5.99276 62.3582 4.58078H56.9585C56.9585 7.93824 58.4638 9.74913 59.563 11.0713C60.4401 12.1262 60.9231 12.7073 60.9231 14.1193C60.9231 15.5311 60.44 16.1122 59.5631 17.1672C58.4637 18.4893 56.9585 20.3002 56.9585 23.6575Z" fill="#323232"/>
<path d="M108.504 8.5192C109.919 7.70224 110.693 7.23856 110.826 7.12816C111.268 6.68656 111.722 6.70864 112.186 7.1944C112.496 7.50352 112.927 7.50352 113.48 7.1944C114.033 6.90736 114.719 6.96256 115.537 7.36C116.046 7.62496 116.389 7.91752 116.565 8.23768C116.742 8.55784 116.886 9.15952 116.997 10.0427C117.196 11.2571 117.439 11.9802 117.727 12.2121C118.014 12.4439 118.468 12.2838 119.087 11.7318C119.64 11.1578 120.104 10.8707 120.48 10.8707C120.856 10.8707 121.376 10.6499 122.039 10.2083C123.123 9.47968 124.185 9.4852 125.224 10.2249C126.264 10.9646 126.784 12.0962 126.784 13.6197C126.784 14.4366 126.911 14.8672 127.165 14.9114C127.42 14.9555 127.934 14.6574 128.708 14.0171C130.743 12.339 132.319 11.3565 133.435 11.0694C134.552 10.7824 135.642 11.0805 136.703 11.9637L137.997 13.0898L137.732 16.203C137.511 18.3006 137.068 20.0118 136.405 21.3366C135.741 22.7498 135.409 23.5722 135.409 23.8041C135.409 24.0359 135.232 24.5382 134.879 25.311C134.171 26.6579 133.894 28.6175 134.049 31.1898C134.204 33.7622 134.691 35.1808 135.509 35.4458C136.062 35.5562 136.803 35.3464 137.732 34.8165C138.639 34.2203 139.446 33.9222 140.154 33.9222C140.729 33.9222 141.265 34.1872 141.763 34.7171C142.26 35.247 142.41 35.7218 142.21 36.1413C142.011 36.627 141.353 37.1404 140.236 37.6814C139.12 38.2223 138.019 38.5701 136.935 38.7246C136.184 38.813 135.614 38.8185 135.227 38.7412C134.84 38.6639 134.37 38.4266 133.817 38.0291C132.645 37.168 131.865 36.2186 131.478 35.1808C131.091 34.143 130.897 32.5312 130.897 30.3453C130.897 27.6957 131.008 25.9403 131.229 25.0792C131.694 23.6219 132.114 22.0763 132.49 20.4424C132.866 18.8085 133.098 17.5168 133.187 16.5674C133.297 15.6179 133.253 15.088 133.054 14.9776C132.28 14.9776 130.555 16.6446 127.878 19.9787C125.202 23.3128 123.698 25.6754 123.367 27.0664C123.212 27.8171 122.67 29.2634 121.741 31.4051C120.812 33.5469 119.872 35.501 118.921 37.2674C118.456 38.1285 117.904 38.6474 117.262 38.824C116.621 39.0006 116.101 38.7964 115.703 38.2113C115.305 37.6262 115.227 36.8368 115.471 35.8432C115.581 35.0704 115.913 34.143 116.466 33.0611C117.019 32.0454 117.295 31.2616 117.295 30.7096C117.295 30.1576 117.561 29.5283 118.092 28.8218C118.689 28.0931 119.015 27.3976 119.07 26.7352C119.126 26.0728 119.374 25.4877 119.817 24.9798C120.392 24.3616 121.16 22.5676 122.122 19.5978C123.085 16.6281 123.444 14.9224 123.201 14.4808C123.09 14.3042 122.487 14.4863 121.393 15.0273C120.298 15.5682 119.75 15.9657 119.75 16.2196C119.75 16.4735 118.965 17.8922 117.395 20.4755C115.847 22.8381 114.752 24.9357 114.11 26.7683C113.447 28.4906 112.783 29.8374 112.12 30.809C111.412 31.913 111.058 32.5974 111.058 32.8624C111.036 33.304 110.516 34.4632 109.499 36.34C108.99 37.2894 108.57 38.0236 108.238 38.5425C107.907 39.0614 107.663 39.3539 107.508 39.4202C107.11 39.6189 106.768 39.6189 106.48 39.4202C105.02 38.4707 104.843 37.0024 105.949 35.0152C106.591 33.845 107.066 32.9728 107.376 32.3987C108.017 31.2726 108.482 30.4005 108.769 29.7822C109.145 28.9874 109.505 28.0766 109.847 27.0498C110.19 26.0231 110.467 25.0902 110.677 24.2512C110.887 23.4122 111.152 22.4738 111.473 21.436C111.794 20.3982 112.131 19.493 112.485 18.7202C113.148 17.1966 113.535 16.1423 113.646 15.5572C113.757 14.9721 113.757 14.1275 113.646 13.0235L113.347 10.6389L111.888 10.7382C110.959 10.8707 110.29 11.1191 109.881 11.4834C109.471 11.8478 109.433 12.2507 109.764 12.6923C110.516 13.5534 110.019 14.9003 108.271 16.733C106.347 18.7202 104.821 19.3826 103.693 18.7202C103.096 18.411 102.797 17.6714 102.797 16.5011C102.797 15.3309 103.074 14.0944 103.627 12.7917C104.047 11.8643 104.534 11.1578 105.087 10.672C105.64 10.1862 106.779 9.46864 108.504 8.5192Z" fill="#323232"/>
<path d="M162.552 36.0419C163.039 35.6445 163.465 35.4789 163.83 35.5451C164.195 35.6114 164.377 35.9646 164.377 36.605C164.377 36.8037 164.333 37.0024 164.244 37.2011C164.156 37.3998 164.056 37.5654 163.946 37.6979C163.835 37.8304 163.669 37.9905 163.448 38.1782C163.227 38.3658 163.056 38.5038 162.934 38.5922C162.812 38.6805 162.624 38.8074 162.37 38.973C162.116 39.1386 161.955 39.2435 161.889 39.2877C160.319 40.3696 159.511 40.9437 159.467 41.0099C159.334 41.1424 159.008 41.2859 158.488 41.4405C157.969 41.595 157.565 41.6723 157.278 41.6723C156.902 41.7827 156.57 41.8379 156.282 41.8379C155.995 41.8379 155.668 41.7882 155.304 41.6889C154.939 41.5895 154.673 41.5067 154.507 41.4405C154.341 41.3742 154.203 41.319 154.093 41.2749C153.495 40.9878 152.677 40.3586 151.638 39.387L150.344 38.1616L148.685 39.387C147.535 40.1598 146.285 40.6346 144.936 40.8112C143.808 40.9216 142.735 40.8002 141.718 40.4469C140.701 40.0936 139.899 39.4809 139.313 38.6087C138.727 37.7366 138.555 36.6933 138.799 35.4789C139.064 34.1982 139.7 32.7906 140.706 31.2561C141.712 29.7215 142.78 28.4133 143.908 27.3314C144.77 26.5144 145.456 26.1059 145.965 26.1059C146.208 26.1059 146.54 26.3267 146.96 26.7683C147.247 27.0774 147.386 27.3314 147.375 27.5301C147.363 27.7288 147.192 28.1373 146.86 28.7555C144.14 34.0768 143.432 36.9693 144.737 37.433L145.002 37.4661C145.909 37.5986 147.159 36.8478 148.751 35.2139C150.344 33.58 151.45 31.924 152.069 30.2459C152.533 29.1198 153.097 28.1042 153.761 27.1989C154.336 26.404 154.756 25.9569 155.022 25.8575C155.287 25.7582 155.785 25.8962 156.514 26.2715C157.134 26.6027 157.46 26.9781 157.493 27.3976C157.526 27.8171 157.3 28.4906 156.813 29.4179C156.57 29.7933 156.371 30.2128 156.216 30.6765C156.061 31.1181 155.939 31.5155 155.851 31.8688C155.807 31.9792 155.751 32.1834 155.685 32.4815C155.619 32.7796 155.552 33.028 155.486 33.2267C155.353 33.7787 155.232 34.2314 155.121 34.5846C154.9 35.512 154.789 36.3897 154.789 37.2177C154.789 38.0457 154.922 38.5922 155.187 38.8571C155.409 39.0779 155.884 39.2104 156.614 39.2546C156.725 39.2104 157.023 39.1055 157.51 38.9399C157.996 38.7743 158.328 38.6474 158.505 38.559C160.208 37.6758 161.557 36.8368 162.552 36.0419Z" fill="#323232"/>
<path d="M167.817 29.3517C167.087 30.2349 166.457 31.0629 165.926 31.8357C165.395 32.6085 165.152 33.0942 165.196 33.293C165.196 33.6462 165.506 34.4522 166.125 35.7107C166.877 37.1459 167.751 37.8635 168.746 37.8635C168.945 37.8635 169.15 37.8414 169.36 37.7973C169.57 37.7531 169.835 37.6758 170.156 37.5654C170.477 37.455 170.681 37.3888 170.77 37.3667C171.013 37.3005 171.411 37.1018 171.964 36.7706C172.65 36.351 173.302 35.8984 173.921 35.4126C174.408 34.9931 174.834 34.822 175.199 34.8993C175.564 34.9766 175.757 35.3243 175.779 35.9426C175.779 36.1413 175.73 36.34 175.63 36.5387C175.531 36.7374 175.425 36.9086 175.315 37.0521C175.204 37.1956 175.044 37.3612 174.834 37.5489C174.624 37.7366 174.452 37.8746 174.32 37.9629C174.187 38.0512 173.999 38.1782 173.756 38.3438C173.512 38.5094 173.357 38.6142 173.291 38.6584C173.114 38.7688 172.849 38.9344 172.495 39.1552C172.141 39.376 171.876 39.5416 171.699 39.652C170.947 40.1598 170.184 40.4579 169.41 40.5462C168.658 40.6566 168.094 40.6622 167.718 40.5628C167.342 40.4634 166.789 40.1709 166.059 39.6851C165.13 39.0448 164.378 38.3493 163.803 37.5986C163.228 36.8478 162.841 36.1302 162.642 35.4458C162.443 34.7613 162.343 33.9664 162.343 33.0611C162.343 32.1558 162.398 31.3444 162.509 30.6268C162.62 29.9092 162.758 29.026 162.924 27.9772C163.09 26.9284 163.184 26.0286 163.206 25.2779C163.228 24.9909 163.255 24.6928 163.289 24.3837C163.322 24.0746 163.355 23.793 163.388 23.5391C163.421 23.2852 163.471 22.9816 163.537 22.6283C163.604 22.275 163.654 21.999 163.687 21.8003C163.72 21.6016 163.792 21.309 163.902 20.9226C164.013 20.5362 164.085 20.2658 164.118 20.1112C164.151 19.9566 164.229 19.6641 164.35 19.2335C164.472 18.803 164.549 18.5325 164.582 18.4221C164.616 18.3117 164.704 18.0191 164.848 17.5444C164.992 17.0697 165.075 16.7882 165.097 16.6998C165.34 15.8829 165.55 15.2867 165.727 14.9114C165.926 14.5139 166.197 14.122 166.54 13.7356C166.883 13.3492 167.192 13.0346 167.469 12.7917C167.745 12.5488 168.116 12.2397 168.58 11.8643C168.757 11.7318 169.061 11.489 169.492 11.1357C169.924 10.7824 170.239 10.534 170.438 10.3905C170.637 10.247 170.908 10.0482 171.251 9.79432C171.594 9.5404 171.925 9.3196 172.246 9.13192C172.567 8.94424 172.915 8.76208 173.291 8.58544C174.132 8.16592 174.784 8.01136 175.249 8.12176C175.602 8.21008 175.901 8.40328 176.144 8.70136C176.388 8.99944 176.553 9.33616 176.642 9.71152C176.708 9.97648 176.758 10.247 176.791 10.523C176.824 10.799 176.83 11.097 176.808 11.4172C176.786 11.7374 176.769 12.0078 176.758 12.2286C176.747 12.4494 176.697 12.7475 176.609 13.1229C176.52 13.4982 176.459 13.7687 176.426 13.9343C176.393 14.0999 176.305 14.387 176.161 14.7954C176.017 15.2039 175.929 15.4634 175.895 15.5738C175.862 15.6842 175.763 15.9657 175.597 16.4183C175.431 16.871 175.337 17.1304 175.315 17.1966C174.762 18.676 174.32 19.6475 173.988 20.1112C173.767 20.4203 173.125 21.5795 172.064 23.5888C170.98 25.5981 170.228 26.8014 169.808 27.1989C169.21 27.7509 168.547 28.4685 167.817 29.3517ZM167.386 21.3035C167.143 21.5243 166.861 22.275 166.54 23.5557C166.219 24.8363 166.158 25.576 166.357 25.7747C166.468 25.863 166.65 25.7692 166.905 25.4932C167.159 25.2172 167.469 24.7866 167.834 24.2015C168.199 23.6164 168.558 22.9154 168.912 22.0984C169.642 20.6411 170.007 19.8462 170.007 19.7138C170.007 19.6475 170.35 18.8968 171.035 17.4616C171.721 16.0485 172.064 15.1874 172.064 14.8782C172.064 14.2379 171.776 14.1717 171.201 14.6795C170.825 14.9666 170.46 15.4192 170.106 16.0374C169.553 17.0531 169.034 17.8701 168.547 18.4883C168.105 19.0624 167.883 19.6034 167.883 20.1112C167.883 20.597 167.718 20.9944 167.386 21.3035Z" fill="#323232"/>
<path d="M190.504 36.4725C191.013 36.1192 191.444 36.0033 191.798 36.1247C192.152 36.2462 192.307 36.616 192.263 37.2342C192.24 37.3888 192.191 37.5489 192.113 37.7145C192.036 37.8801 191.931 38.0291 191.798 38.1616C191.665 38.2941 191.538 38.4155 191.417 38.5259C191.295 38.6363 191.135 38.7522 190.936 38.8737C190.736 38.9951 190.571 39.089 190.438 39.1552C190.305 39.2214 190.134 39.3098 189.924 39.4202C189.714 39.5306 189.575 39.6078 189.509 39.652C188.956 39.939 188.381 40.1709 187.784 40.3475C187.762 40.3696 187.491 40.5407 186.971 40.8609C186.451 41.181 185.86 41.5343 185.196 41.9207C184.533 42.3071 183.991 42.5666 183.57 42.699C182.995 42.8978 182.398 43.0523 181.779 43.1627C181.16 43.2731 180.507 43.3449 179.822 43.378C179.136 43.4111 178.478 43.3394 177.848 43.1627C177.217 42.9861 176.692 42.7211 176.272 42.3678C175.763 41.9042 175.348 41.2694 175.028 40.4634C174.707 39.6575 174.497 38.7854 174.397 37.847C174.298 36.9086 174.248 36.0309 174.248 35.2139C174.248 34.397 174.281 33.6131 174.348 32.8624C174.37 32.752 174.497 31.8081 174.729 30.0306C174.961 28.2532 175.182 26.5089 175.393 24.7977L175.708 22.2309C175.442 22.0763 174.945 21.9659 174.215 21.8997C173.773 21.8776 173.319 21.8776 172.855 21.8997C171.771 21.8997 171.008 21.8666 170.566 21.8003C170.477 21.7782 170.35 21.7672 170.184 21.7672C170.018 21.7672 169.852 21.7672 169.686 21.7672C169.52 21.7672 169.355 21.7672 169.189 21.7672C169.023 21.7672 168.89 21.7506 168.791 21.7175C168.691 21.6844 168.63 21.6347 168.608 21.5685C168.564 21.2152 168.708 20.9613 169.039 20.8067C169.062 20.7846 169.211 20.6908 169.487 20.5252C169.764 20.3596 170.051 20.1995 170.35 20.045C170.648 19.8904 171.052 19.7524 171.561 19.631C172.069 19.5095 172.589 19.4598 173.12 19.4819C174.779 19.6365 175.813 19.6862 176.222 19.631C176.631 19.5758 177.035 19.3384 177.433 18.9189C178.03 18.3669 178.826 16.9206 179.822 14.5802C179.866 14.4918 179.932 14.3594 180.021 14.1827C180.397 13.2995 180.706 12.604 180.95 12.0962C181.193 11.5883 181.536 10.9425 181.978 10.1586C182.42 9.3748 182.907 8.71792 183.438 8.188C183.969 7.65808 184.522 7.2496 185.097 6.96256C186.954 6.07936 187.883 6.13456 187.883 7.12816C187.883 7.70224 187.452 8.99392 186.589 11.0032C186.346 11.5552 186.169 11.9858 186.059 12.2949C185.926 12.6923 185.815 13.167 185.727 13.719C185.638 14.271 185.428 14.823 185.097 15.375C184.566 16.3024 184.123 17.0862 183.77 17.7266C183.349 18.4773 183.194 18.9189 183.305 19.0514C183.416 19.228 184.533 19.4267 186.656 19.6475C188.138 19.8021 189.039 19.9346 189.36 20.045C189.68 20.1554 189.819 20.3651 189.774 20.6742C189.73 21.0938 189.487 21.2704 189.044 21.2042C188.868 21.1821 188.514 21.171 187.983 21.171C187.452 21.1931 186.855 21.2262 186.191 21.2704C185.528 21.3146 184.842 21.3808 184.134 21.4691C183.449 21.5574 182.874 21.6237 182.409 21.6678C182.166 21.712 181.845 22.4186 181.447 23.7875C181.049 25.1565 180.612 26.818 180.137 28.7721C179.661 30.7262 179.313 32.0344 179.092 32.6968C177.964 36.075 178.107 38.3934 179.523 39.652C180.164 40.2261 180.762 40.5021 181.315 40.48C181.646 40.48 182.011 40.3586 182.409 40.1157C182.476 40.0274 182.702 39.8949 183.089 39.7182C183.476 39.5416 183.875 39.3815 184.284 39.238C184.693 39.0945 185.113 38.9454 185.544 38.7909C185.976 38.6363 186.202 38.559 186.225 38.559C187.994 37.8525 189.42 37.157 190.504 36.4725Z" fill="#323232"/>
<path d="M197.974 20.3762C197.355 20.5307 196.747 20.3099 196.15 19.7138C195.729 19.2942 195.508 19.0182 195.486 18.8858C195.464 18.7533 195.619 18.5546 195.951 18.2896C196.415 17.9584 197.007 17.7928 197.725 17.7928C198.444 17.7928 198.936 17.9584 199.202 18.2896C199.489 18.665 199.506 19.0734 199.252 19.515C198.997 19.9566 198.571 20.2437 197.974 20.3762ZM203.88 36.2406C204.034 36.5056 204.04 36.7595 203.896 37.0024C203.752 37.2453 203.349 37.6427 202.685 38.1947C201.646 39.0779 200.418 39.8838 199.003 40.6125C197.941 41.1424 196.841 41.3577 195.702 41.2583C194.563 41.159 193.49 40.8333 192.484 40.2813C191.477 39.7293 190.609 39.0117 189.879 38.1285C188.84 36.892 188.53 35.247 188.95 33.1936C188.995 33.039 189.083 32.5091 189.216 31.6038C189.349 30.6986 189.487 29.8982 189.631 29.2026C189.774 28.5071 189.935 28.049 190.112 27.8282C190.311 27.5853 190.637 27.4197 191.09 27.3314C191.544 27.243 192.014 27.2375 192.5 27.3148C192.987 27.3921 193.451 27.5356 193.894 27.7454C194.336 27.9551 194.64 28.2366 194.806 28.5899C194.972 28.9432 194.966 29.3406 194.789 29.7822C194.281 30.8421 194.026 31.5818 194.026 32.0013C194.026 32.3987 193.805 32.8955 193.363 33.4917C192.987 33.9333 192.76 34.4687 192.683 35.098C192.605 35.7273 192.71 36.1413 192.998 36.34C193.241 36.4283 193.363 36.7043 193.363 37.168C193.363 37.5654 193.65 38.0181 194.225 38.5259C194.623 38.9013 194.939 39.111 195.171 39.1552C195.403 39.1994 195.829 39.1442 196.448 38.9896C197.355 38.6584 198.516 37.985 199.932 36.9693C201.06 36.1523 201.917 35.6886 202.503 35.5782C203.089 35.4678 203.548 35.6886 203.88 36.2406Z" fill="#323232"/>
<path d="M117.926 58.8101C118.921 58.1477 119.629 57.8165 120.049 57.8165C120.27 57.8165 120.668 57.684 121.243 57.419C121.818 57.1541 122.382 56.9278 122.935 56.7401C123.488 56.5524 123.919 56.5027 124.229 56.591C124.782 56.7235 125.567 56.845 126.585 56.9554C128.066 57.1982 129.04 58.0042 129.504 59.3731C129.969 60.7421 129.769 62.2877 128.907 64.0099C128.686 64.4957 128.387 65.2022 128.011 66.1296C127.724 66.8582 127.005 67.6034 125.855 68.3652C124.705 69.127 123.787 69.4526 123.101 69.3422C122.615 69.2318 122.073 68.9172 121.475 68.3983C120.878 67.8794 120.37 67.2888 119.949 66.6264C119.529 65.964 119.319 65.401 119.319 64.9373C119.319 64.1645 119.208 63.7008 118.987 63.5462C118.788 63.4358 118.291 63.7781 117.494 64.573C116.698 65.3458 115.836 66.2952 114.907 67.4213C113.978 68.5474 113.27 69.541 112.783 70.4021C108.117 78.5938 106.701 83.4514 108.537 84.9749C108.913 85.2398 109.101 85.5379 109.101 85.8691C109.101 86.2445 109.416 86.6971 110.046 87.227C110.677 87.757 111.302 88.0882 111.921 88.2206C112.629 88.3973 113.513 88.331 114.575 88.0219C115.128 87.8894 115.813 87.5693 116.632 87.0614C117.45 86.5536 118.163 86.0292 118.772 85.4882C119.38 84.9473 119.684 84.5664 119.684 84.3456C119.684 83.6832 120.171 83.2582 121.144 83.0705C122.117 82.8828 122.869 83.087 123.4 83.6832C124.063 84.4339 123.919 85.4386 122.968 86.6971C122.017 87.9557 120.536 89.0928 118.523 90.1085C117.616 90.5501 116.842 90.8426 116.201 90.9862C115.559 91.1297 114.641 91.2014 113.447 91.2014C112.142 91.2014 111.224 91.1462 110.693 91.0358C110.185 90.9034 109.521 90.5722 108.703 90.0422C107.354 89.159 106.292 88.0661 105.518 86.7634C104.876 85.7918 104.489 85.0356 104.357 84.4946C104.224 83.9537 104.147 82.8442 104.124 81.1661C104.08 79.7309 104.097 78.7538 104.174 78.235C104.252 77.7161 104.484 77.1365 104.871 76.4962C105.258 75.8558 105.562 75.2597 105.783 74.7077C106.27 73.5374 106.845 72.4224 107.508 71.3626C109.344 68.6909 110.262 67.0128 110.262 66.3283C110.262 66.0413 111.274 64.8931 113.298 62.8838C115.321 60.8746 116.864 59.5166 117.926 58.8101ZM125.357 62.6189C125.534 62.3098 125.622 62.1 125.622 61.9896C125.622 61.5038 125.291 61.5259 124.627 62.0558C124.273 62.3429 123.986 62.6962 123.765 63.1157C122.991 64.308 122.957 64.9042 123.665 64.9042C123.731 64.9042 123.881 64.7717 124.113 64.5067C124.345 64.2418 124.561 63.9437 124.76 63.6125C124.959 63.2813 125.158 62.9501 125.357 62.6189Z" fill="#323232"/>
<path d="M147.129 84.2794C147.549 83.9482 147.909 83.8102 148.207 83.8654C148.506 83.9206 148.655 84.2131 148.655 84.743C148.655 84.8534 148.633 84.9694 148.589 85.0908C148.545 85.2122 148.495 85.3226 148.439 85.422C148.384 85.5214 148.301 85.6262 148.191 85.7366C148.08 85.847 147.981 85.9464 147.892 86.0347C147.804 86.123 147.693 86.2169 147.56 86.3162C147.428 86.4156 147.317 86.4929 147.229 86.5481C147.14 86.6033 147.03 86.675 146.897 86.7634C146.764 86.8517 146.665 86.9179 146.598 86.9621C146.178 87.2491 145.736 87.492 145.271 87.6907C145.227 87.7128 144.962 87.8453 144.475 88.0882L144.309 88.2869C143.712 88.861 142.849 89.2142 141.721 89.3467C141.014 89.435 140.466 89.4406 140.079 89.3633C139.692 89.286 139.156 89.0928 138.47 88.7837C137.453 88.2979 136.778 87.9005 136.446 87.5914C136.225 87.4147 136.037 87.3374 135.882 87.3595C135.728 87.3816 135.44 87.5582 135.02 87.8894C133.671 88.861 132.062 89.4074 130.193 89.5289C128.324 89.6503 127.102 89.2805 126.527 88.4194C126.173 87.8674 126.013 86.7965 126.046 85.2067C126.079 83.617 126.284 82.4798 126.66 81.7954C126.991 81.1992 127.246 80.7576 127.423 80.4706C127.622 80.1835 127.81 79.9186 127.987 79.6757C128.163 79.4107 128.462 79.0243 128.882 78.5165C130.276 76.7942 131.37 75.613 132.167 74.9726C132.786 74.4869 133.516 74.0729 134.356 73.7306C135.197 73.3884 136.076 73.1621 136.994 73.0517C137.912 72.9413 138.724 73.0627 139.432 73.416C140.295 73.8576 140.826 74.6138 141.025 75.6847C141.224 76.7556 141.202 77.7934 140.958 78.798C140.715 79.8026 140.372 80.7466 139.93 81.6298C139.554 82.4688 139.272 83.3851 139.084 84.3787C138.896 85.3723 138.901 86.0237 139.1 86.3328C139.521 87.1718 140.903 87.227 143.247 86.4984C143.336 86.4763 143.424 86.4653 143.513 86.4653C143.646 86.4211 143.745 86.377 143.811 86.3328C145.227 85.6042 146.333 84.9197 147.129 84.2794ZM137.11 78.0528C137.353 77.9203 137.486 77.8099 137.508 77.7216C137.53 77.6333 137.475 77.5229 137.342 77.3904C137.077 77.1034 136.701 76.9157 136.214 76.8274C135.728 76.739 135.252 76.7611 134.788 76.8936C134.323 77.004 133.621 77.4456 132.681 78.2184C131.741 78.9912 131.105 79.6536 130.773 80.2056C130.331 80.8459 129.955 81.42 129.645 81.9278C129.269 82.4578 129.015 83.2306 128.882 84.2462C128.75 85.2619 128.805 85.9243 129.048 86.2334C129.269 86.4984 129.756 86.6309 130.508 86.6309C131.26 86.6309 131.968 86.5094 132.631 86.2666C133.273 85.9574 133.748 85.4938 134.058 84.8755C134.589 83.8378 135.02 82.9987 135.352 82.3584C135.927 81.3648 136.214 80.6914 136.214 80.3381C136.214 80.1173 136.308 79.891 136.496 79.6591C136.684 79.4273 136.734 79.1789 136.645 78.9139C136.535 78.5606 136.69 78.2736 137.11 78.0528Z" fill="#323232"/>
<path d="M171.845 83.8157C171.801 84.1469 171.591 84.5333 171.215 84.9749C170.197 86.1672 168.942 87.078 167.449 87.7073C165.956 88.3366 164.425 88.596 162.854 88.4856C162.501 88.4635 162.213 88.4194 161.992 88.3531C161.749 88.2648 161.406 88.0661 160.963 87.757C160.034 87.1166 157.955 85.6704 154.726 83.4182C154.262 83.1091 153.897 82.9766 153.632 83.0208C153.3 83.065 152.99 83.3078 152.703 83.7494C152.128 84.6547 151.774 85.6483 151.641 86.7302C151.597 87.1277 151.541 87.4037 151.475 87.5582C151.32 87.8453 151.06 88.0385 150.695 88.1378C150.331 88.2372 149.993 88.2096 149.684 88.055C149.131 87.8342 148.677 87.3374 148.323 86.5646C148.169 86.2776 148.08 85.974 148.058 85.6538C148.036 85.3337 148.058 84.881 148.124 84.2959C148.191 83.7108 148.224 83.3741 148.224 83.2858C148.246 83.0208 148.318 82.6399 148.439 82.1431C148.561 81.6463 148.633 81.2765 148.655 81.0336C148.677 80.6362 148.943 79.6757 149.451 78.1522C149.96 76.6286 150.369 75.5467 150.679 74.9064C151.497 73.2062 152.039 71.5613 152.305 69.9715C152.481 68.7792 153.764 65.6549 156.153 60.5986C156.418 60.0245 156.739 59.5553 157.115 59.191C157.491 58.8266 157.978 58.4678 158.575 58.1146C159.658 57.4963 160.51 57.2976 161.129 57.5184C161.483 57.6509 161.765 57.8882 161.975 58.2305C162.185 58.5727 162.307 58.9426 162.34 59.34C162.373 59.7374 162.368 60.1349 162.324 60.5323C162.169 61.7246 161.616 63.4138 160.665 65.5997C159.161 68.9779 158.166 71.208 157.679 72.2899C157.944 72.3341 158.226 72.3617 158.525 72.3727C158.824 72.3838 159.172 72.3727 159.57 72.3396C159.968 72.3065 160.256 72.2899 160.433 72.2899C161.583 72.2678 162.423 72.5438 162.954 73.1179C163.75 74.0011 163.717 75.3038 162.854 77.0261C161.793 79.1016 160.322 80.9563 158.442 82.5902C158.685 82.7669 158.951 82.9546 159.238 83.1533C159.526 83.352 159.824 83.5618 160.134 83.7826C160.444 84.0034 160.698 84.191 160.897 84.3456C161.937 85.0742 162.755 85.5048 163.352 85.6373C164.48 85.9022 165.741 85.6814 167.134 84.9749C167.532 84.7541 168.096 84.4118 168.826 83.9482C169.556 83.4845 170.109 83.1533 170.485 82.9546C170.728 82.8221 170.916 82.7558 171.049 82.7558C171.292 82.7558 171.486 82.8607 171.629 83.0705C171.773 83.2802 171.845 83.5066 171.845 83.7494C171.845 83.7494 171.845 83.755 171.845 83.766C171.845 83.777 171.845 83.7936 171.845 83.8157ZM156.949 79.1126C157.568 78.5606 157.812 78.0859 157.679 77.6885C157.502 77.269 157.237 77.0923 156.883 77.1586C156.529 77.2248 156.142 77.5118 155.722 78.0197C155.08 78.8587 154.925 79.4162 155.257 79.6922C155.589 79.9682 156.153 79.775 156.949 79.1126Z" fill="#323232"/>
<path d="M183.542 84.6106C184.029 84.2131 184.455 84.053 184.819 84.1303C185.184 84.2076 185.367 84.5554 185.367 85.1736C185.389 85.3723 185.35 85.571 185.251 85.7698C185.151 85.9685 185.046 86.1396 184.936 86.2831C184.825 86.4266 184.665 86.5867 184.455 86.7634C184.244 86.94 184.073 87.0725 183.94 87.1608C183.808 87.2491 183.614 87.3761 183.36 87.5417C183.105 87.7073 182.956 87.8122 182.912 87.8563C182.381 88.2096 181.839 88.5077 181.286 88.7506C181.242 88.7726 181.181 88.8002 181.104 88.8334C181.026 88.8665 180.943 88.8996 180.855 88.9327C180.766 88.9658 180.678 88.999 180.59 89.0321C180.501 89.0652 180.429 89.0928 180.374 89.1149L180.291 89.148C178.942 89.7 177.493 90.0202 175.945 90.1085C174.352 90.1968 173.191 90.0533 172.461 89.6779C172.373 89.6338 172.019 89.4792 171.4 89.2142C170.781 88.9493 170.338 88.7174 170.073 88.5187C169.564 88.1875 169.078 87.4699 168.613 86.3659C167.75 84.3787 167.319 82.6234 167.319 81.0998C167.319 80.1725 167.485 78.9581 167.817 77.4566C167.839 77.3683 167.878 77.1806 167.933 76.8936C167.988 76.6066 168.038 76.3913 168.082 76.2478C168.126 76.1042 168.182 75.9055 168.248 75.6516C168.314 75.3977 168.381 75.1824 168.447 75.0058C168.514 74.8291 168.591 74.647 168.679 74.4593C168.768 74.2716 168.856 74.1005 168.945 73.9459C169.409 73.3056 169.785 72.8419 170.073 72.5549C171.267 71.3184 172.782 70.7664 174.618 70.8989C176.52 71.0534 177.548 71.6827 177.703 72.7867C177.836 73.6478 177.786 74.5366 177.554 75.4529C177.322 76.3692 177.034 77.1254 176.691 77.7216C176.349 78.3178 175.873 79.0906 175.265 80.04C174.657 80.9894 174.22 81.7181 173.954 82.2259C172.981 84.0586 172.495 85.1515 172.495 85.5048C172.495 85.7918 172.771 86.2003 173.324 86.7302C173.678 87.0614 173.993 87.2602 174.27 87.3264C174.546 87.3926 175.049 87.3595 175.779 87.227C176.929 87.0725 178.179 86.7965 179.528 86.399C180.037 86.2224 180.778 85.9243 181.751 85.5048C182.724 85.0853 183.321 84.7872 183.542 84.6106ZM170.67 82.259C170.869 82.259 171.422 81.3979 172.329 79.6757C173.213 77.9534 173.656 76.9157 173.656 76.5624C173.656 76.1429 173.429 75.8724 172.976 75.751C172.522 75.6295 172.163 75.7344 171.897 76.0656C171.676 76.3306 171.455 76.728 171.234 77.2579C171.013 77.7878 170.836 78.3288 170.703 78.8808C170.593 79.4328 170.493 79.9627 170.405 80.4706C170.316 80.9784 170.294 81.4034 170.338 81.7457C170.382 82.0879 170.493 82.259 170.67 82.259Z" fill="#323232"/>
</svg>
